<svg width="25" height="24" viewBox="0 0 25 24" fill="none" xmlns="http://www.w3.org/2000/svg">
<g id="cake" clip-path="url(#clip0_2051_1229)">
<path id="Vector" d="M12.6577 6C13.7385 6 14.6051 5.1 14.6051 4C14.6051 3.62 14.5077 3.27 14.3227 2.97L12.6577 0L10.9928 2.97C10.8078 3.27 10.7104 3.62 10.7104 4C10.7104 5.1 11.5867 6 12.6577 6ZM17.1366 15.99L16.0948 14.92L15.0432 15.99C13.7775 17.29 11.5575 17.3 10.282 15.99L9.24013 14.92L8.17883 15.99C7.54594 16.64 6.69884 17 5.80306 17C5.09227 17 4.43991 16.77 3.89465 16.39V21C3.89465 21.55 4.33281 22 4.86833 22H20.4471C20.9827 22 21.4208 21.55 21.4208 21V16.39C20.8756 16.77 20.2232 17 19.5124 17C18.6166 17 17.7695 16.64 17.1366 15.99ZM18.4998 9H13.6314V7H11.6841V9H6.81568C5.19938 9 3.89465 10.34 3.89465 12V13.54C3.89465 14.62 4.75149 15.5 5.80306 15.5C6.30937 15.5 6.79621 15.3 7.14673 14.93L9.2304 12.8L11.3043 14.93C12.0248 15.67 13.2809 15.67 14.0014 14.93L16.0851 12.8L18.159 14.93C18.5193 15.3 18.9964 15.5 19.5027 15.5C20.5542 15.5 21.4111 14.62 21.4111 13.54V12C21.4208 10.34 20.1161 9 18.4998 9Z" fill="#41AFFF"/>
</g>
<defs>
<clipPath id="clip0_2051_1229">
<rect width="23.3682" height="24" fill="white" transform="translate(0.973633)"/>
</clipPath>
</defs>
</svg>
