<svg width="16" height="16" viewBox="0 0 16 16" fill="none" xmlns="http://www.w3.org/2000/svg">
<g id="Call">
<path id="Call_2" d="M12.593 9.90336C12.0698 9.78777 11.6559 10.0373 11.2894 10.2551C10.914 10.4797 10.2003 11.0743 9.79125 10.9221C7.69678 10.0364 5.72687 8.15363 4.87413 5.9939C4.72384 5.56478 5.3001 4.82713 5.51711 4.4371C5.72768 4.05954 5.96558 3.63042 5.85708 3.08904C5.75902 2.60254 4.49076 0.94511 4.04229 0.491875C3.74652 0.19249 3.44352 0.0278285 3.13249 0.00121652C1.96308 -0.0503442 0.657049 1.5522 0.427991 1.93557C-0.145861 2.75306 -0.142646 3.84082 0.437635 5.15978C1.8361 8.7025 7.12534 14.049 10.5877 15.5393C11.2267 15.8462 11.811 16 12.3358 16C12.8494 16 13.3067 15.8528 13.6997 15.5609C13.9963 15.3854 15.6206 13.9775 15.578 12.7442C15.5523 12.4298 15.3923 12.1155 15.1046 11.8111C14.6666 11.3462 13.0632 10.0048 12.593 9.90336Z" fill="#41AFFF"/>
</g>
</svg>
