<svg width="16" height="17" viewBox="0 0 16 17" fill="none" xmlns="http://www.w3.org/2000/svg">
<g id="Location">
<path id="Location_2" fill-rule="evenodd" clip-rule="evenodd" d="M0 7.07009C0 3.16021 3.55201 0 7.84854 0C12.1572 0 15.7092 3.16021 15.7092 7.07009C15.7092 9.04034 14.9302 10.8695 13.648 12.4198C12.2336 14.13 10.4902 15.62 8.52782 16.7896C8.07869 17.0599 7.67336 17.0803 7.18044 16.7896C5.20689 15.62 3.46349 14.13 2.06114 12.4198C0.778051 10.8695 0 9.04034 0 7.07009ZM5.262 7.29009C5.262 8.5999 6.42395 9.63007 7.84867 9.63007C9.27433 9.63007 10.4475 8.5999 10.4475 7.29009C10.4475 5.99048 9.27433 4.91016 7.84867 4.91016C6.42395 4.91016 5.262 5.99048 5.262 7.29009Z" fill="#41AFFF"/>
</g>
</svg>
