<svg width="17" height="15" viewBox="0 0 17 15" fill="none" xmlns="http://www.w3.org/2000/svg">
<g id="Message">
<path id="Message_2" fill-rule="evenodd" clip-rule="evenodd" d="M12.1478 0C13.2382 0 14.2872 0.441667 15.0589 1.23417C15.8314 2.025 16.2632 3.09167 16.2632 4.20833V10.7917C16.2632 13.1167 14.4173 15 12.1478 15H4.11458C1.84506 15 0 13.1167 0 10.7917V4.20833C0 1.88333 1.83693 0 4.11458 0H12.1478ZM13.4415 5.44962L13.5066 5.38296C13.7009 5.14129 13.7009 4.79129 13.4976 4.54962C13.3846 4.42546 13.2293 4.34962 13.0675 4.33296C12.8967 4.32379 12.7341 4.38296 12.6113 4.49962L8.94475 7.49962C8.47312 7.90046 7.79738 7.90046 7.31843 7.49962L3.65922 4.49962C3.40632 4.30796 3.05667 4.33296 2.84606 4.55796C2.6265 4.78296 2.60211 5.14129 2.78832 5.39129L2.89485 5.49962L6.59472 8.45796C7.05009 8.82462 7.60222 9.02462 8.18038 9.02462C8.75691 9.02462 9.3188 8.82462 9.77336 8.45796L13.4415 5.44962Z" fill="#41AFFF"/>
</g>
</svg>
